<svg xmlns="http://www.w3.org/2000/svg" viewBox="0 0 51 51" id="login"><circle cx="25.5" cy="25.5" r="24" fill="#EAEEF2"></circle><path fill="#96A6A5" d="M22.203 28.519v-4.03a.67.67 0 0 1 .676-.664h12.67v-1.992c0-.424.498-.659.834-.394l5.884 4.673c.254.2.254.58 0 .784l-5.884 4.673c-.336.265-.834.03-.834-.39v-1.996H22.88a.67.67 0 0 1-.676-.664z"></path><path fill="#96A6A5" d="M25.692 37.735c-6.71 0-12.063-5.911-11.128-12.8.573-4.224 3.585-7.84 7.65-9.127 4.144-1.313 8.443-.178 11.355 2.688a.945.945 0 0 1-.048 1.395l-.717.606a.922.922 0 0 1-1.236-.03c-2.16-2.103-5.319-2.947-8.377-2.02-3.305 1.003-5.689 4.059-5.908 7.505-.31 4.894 3.581 8.974 8.41 8.974 2.208 0 4.306-.864 5.87-2.394.335-.328.872-.33 1.232-.027l.718.604a.946.946 0 0 1 .046 1.399 11.18 11.18 0 0 1-7.867 3.227z"></path><path fill="#334861" d="M21.203 27.519v-4.03a.67.67 0 0 1 .676-.664h12.67v-1.992c0-.424.498-.659.834-.394l5.884 4.673c.254.2.254.58 0 .784l-5.884 4.673c-.336.265-.834.03-.834-.39v-1.996H21.88a.67.67 0 0 1-.676-.664z"></path><path fill="#273E56" d="M24.692 36.735c-6.71 0-12.063-5.911-11.128-12.8.573-4.224 3.585-7.84 7.65-9.127 4.144-1.313 8.443-.178 11.355 2.688a.945.945 0 0 1-.048 1.395l-.717.606a.922.922 0 0 1-1.236-.03c-2.16-2.103-5.319-2.947-8.377-2.02-3.305 1.003-5.689 4.059-5.908 7.505-.31 4.894 3.581 8.974 8.41 8.974 2.208 0 4.306-.864 5.87-2.394.335-.328.872-.33 1.232-.027l.718.604a.946.946 0 0 1 .046 1.399 11.18 11.18 0 0 1-7.867 3.227z"></path></svg>